<?xml version="1.0" standalone="no"?><!DOCTYPE svg PUBLIC "-//W3C//DTD SVG 1.1//EN" "http://www.w3.org/Graphics/SVG/1.1/DTD/svg11.dtd"><svg t="1651113977131" class="icon" viewBox="0 0 1024 1024" version="1.1" xmlns="http://www.w3.org/2000/svg" p-id="1728" xmlns:xlink="http://www.w3.org/1999/xlink" width="18" height="18"><defs><style type="text/css"></style></defs><path d="M853.330566 0.799375H170.663899C77.136967 0.799375 0.39692 77.539422 0.39692 171.066354v681.867292c0 94.326308 76.740047 171.066354 170.266979 171.066354h681.867291c94.326308 0 170.266979-76.740047 170.266979-170.266979V171.066354C1023.597545 77.539422 946.857498 0.799375 853.330566 0.799375zM599.928536 777.79235c0 20.783763-8.79313 31.175644-27.178767 31.175644H442.451565c-18.385636 0-27.178767-10.391881-27.178767-31.175644 0-20.783763 8.79313-31.175644 27.178767-31.175644h129.498829c18.385636 0 27.978142 10.391881 27.978142 31.175644z m35.971897-104.718189c0 20.783763-8.79313 31.175644-27.178767 31.175644H406.479668c-18.385636 0-27.178767-10.391881-27.178767-31.175644 0-20.783763 8.79313-31.175644 27.178767-31.175644h202.241998c18.385636 0.799375 27.178767 11.191257 27.178767 31.175644z m114.310695-155.87822H635.900433V567.556596c0 7.194379-4.796253 12.790008-11.191257 12.790008H389.692783c-6.395004 0-11.191257-6.395004-11.191257-13.589383v-48.761905H264.190831c-7.993755 0-14.388759-7.194379-14.388759-16.786885 0-4.796253 2.398126-9.592506 5.595629-12.790008l242.210772-258.198282c5.595628-6.395004 15.188134-6.395004 20.783763 0l243.010148 258.997658c3.197502 3.197502 4.796253 7.194379 4.796253 11.990632-1.598751 8.79313-7.993755 15.98751-15.987509 15.98751z" fill="#398DEE" p-id="1729"></path></svg>