<?xml version="1.0" standalone="no"?><!DOCTYPE svg PUBLIC "-//W3C//DTD SVG 1.1//EN" "http://www.w3.org/Graphics/SVG/1.1/DTD/svg11.dtd"><svg t="1651113963775" class="icon" viewBox="0 0 1024 1024" version="1.1" xmlns="http://www.w3.org/2000/svg" p-id="1563" width="18" height="18" xmlns:xlink="http://www.w3.org/1999/xlink"><defs><style type="text/css"></style></defs><path d="M853.733021 0.799375H171.066354C77.539422 0.799375 0.799375 77.539422 0.799375 171.066354v681.867292c0 94.326308 76.740047 171.066354 170.266979 171.066354h681.867292c94.326308 0 170.266979-76.740047 170.266979-170.266979V171.066354C1024 77.539422 947.259953 0.799375 853.733021 0.799375zM414.875878 255.800156c0-20.783763 8.79313-31.175644 27.178767-31.175644h129.498829c18.385636 0 27.178767 10.391881 27.178766 31.175644 0 20.783763-8.79313 31.175644-27.178766 31.175644H442.054645c-18.385636 0-27.178767-10.391881-27.178767-31.175644z m-36.771272 104.718189c0-20.783763 8.79313-31.175644 27.178766-31.175644H607.525371c18.385636 0 27.178767 10.391881 27.178766 31.175644 0 20.783763-8.79313 31.175644-27.178766 31.175644H406.082748c-18.385636-0.799375-27.978142-11.191257-27.978142-31.175644zM759.406714 545.174083l-242.210773 258.198282c-5.595628 6.395004-15.188134 6.395004-20.783763 0L254.201405 544.374707c-3.197502-3.197502-4.796253-7.194379-4.796253-11.990632 0-8.79313 6.395004-16.786885 14.388759-16.786885h114.310695v-49.561281c0-7.194379 4.796253-12.790008 11.191257-12.790007h235.016393c6.395004 0 11.191257 6.395004 11.191257 13.589383v48.761905h114.310695c7.993755 0 14.388759 7.194379 14.388758 16.786885 0.799375 5.595628-1.598751 9.592506-4.796252 12.790008z" fill="#398DEE" p-id="1564"></path></svg>