<?xml version="1.0" standalone="no"?><!DOCTYPE svg PUBLIC "-//W3C//DTD SVG 1.1//EN" "http://www.w3.org/Graphics/SVG/1.1/DTD/svg11.dtd"><svg t="1651051982604" class="icon" viewBox="0 0 1024 1024" version="1.1" xmlns="http://www.w3.org/2000/svg" p-id="1368" width="16" height="16" xmlns:xlink="http://www.w3.org/1999/xlink"><defs><style type="text/css"></style></defs><path d="M832 128H192c-35.2 0-64 28.8-64 64v400.8l224-221.6 128 128 201.6-201.6L576 192h256v254.4c23.2 11.2 44.8 26.4 64 43.2V192c0-35.2-28.8-64-64-64zM648 421.6c60.8-12 124-4 180 22.4L726.4 342.4 648 421.6zM452.8 562.4L352 461.6 128 683.2V832c0 35.2 28.8 64 64 64h297.6c-82.4-92-96.8-226.4-36.8-333.6z" p-id="1369"></path><path d="M716 453.6c-141.6 0-256 114.4-256 256s114.4 256 256 256 256-114.4 256-256c0-140.8-114.4-256-256-256z m143.2 176.8l-28.8 50.4c-1.6 2.4-4.8 3.2-7.2 1.6l-24-13.6V824c0 5.6-4.8 10.4-10.4 10.4H643.2c-5.6 0-10.4-4.8-10.4-10.4V670.4l-24 12.8c-2.4 1.6-5.6 0.8-7.2-2.4l-28.8-50.4c-1.6-2.4-0.8-5.6 2.4-7.2l70.4-38.4h15.2c2.4 0 4 1.6 4.8 3.2 6.4 16.8 27.2 28.8 51.2 28.8 24.8 0 44.8-12 51.2-28.8 0.8-2.4 2.4-3.2 4.8-3.2h15.2l69.6 38.4c2.4 1.6 3.2 4.8 1.6 7.2z" p-id="1370"></path></svg>