<?xml version="1.0" standalone="no"?><!DOCTYPE svg PUBLIC "-//W3C//DTD SVG 1.1//EN" "http://www.w3.org/Graphics/SVG/1.1/DTD/svg11.dtd"><svg t="1654068693098" class="icon" viewBox="0 0 1027 1024" version="1.1" xmlns="http://www.w3.org/2000/svg" p-id="6514" xmlns:xlink="http://www.w3.org/1999/xlink" width="16.046875" height="16"><defs><style type="text/css">@font-face { font-family: feedback-iconfont; src: url("//at.alicdn.com/t/font_1031158_u69w8yhxdu.woff2?t=1630033759944") format("woff2"), url("//at.alicdn.com/t/font_1031158_u69w8yhxdu.woff?t=1630033759944") format("woff"), url("//at.alicdn.com/t/font_1031158_u69w8yhxdu.ttf?t=1630033759944") format("truetype"); }
</style></defs><path d="M937.179118 0.123505H86.401743A81.91012 81.91012 0 0 0 0.012164 83.31347v854.296951A86.389579 86.389579 0 0 0 86.401743 1024h854.29695a88.629309 88.629309 0 0 0 86.38958-86.389579V83.31347A86.069618 86.069618 0 0 0 937.179118 0.123505zM195.508582 222.496681A28.476565 28.476565 0 0 1 223.985147 194.020116h183.017924a28.476565 28.476565 0 1 1 0 56.633169H252.141751v154.86132a28.476565 28.476565 0 1 1-56.633169 0z m196.776264 184.617731v189.09719a28.476565 28.476565 0 0 1-56.633169 0v-189.09719a28.476565 28.476565 0 1 1 56.633169 0z m14.718225 422.988977H223.985147a28.476565 28.476565 0 0 1-28.476565-28.476565v-183.017924a28.476565 28.476565 0 1 1 56.633169 0v154.86132h154.86132a28.476565 28.476565 0 1 1 0 56.633169zM490.512997 640.046314a28.476565 28.476565 0 0 1-56.633168 0v-278.366422a28.476565 28.476565 0 1 1 56.633168 0z m98.228151-45.434519a28.476565 28.476565 0 0 1-56.633168 0v-187.497383a28.476565 28.476565 0 1 1 56.633168 0z m243.170668 207.015029a28.476565 28.476565 0 0 1-28.476565 28.476565h-183.657846a28.476565 28.476565 0 0 1 0-56.633169h154.861319v-154.86132a28.476565 28.476565 0 1 1 56.633169 0z m-201.255724-159.980703V361.679892a28.476565 28.476565 0 1 1 56.633169 0V640.046314a28.476565 28.476565 0 0 1-56.633169 0zM831.911816 405.834566a28.476565 28.476565 0 1 1-56.633169 0V250.973246h-155.501242a28.476565 28.476565 0 1 1 0-56.633168h183.337884a28.476565 28.476565 0 0 1 28.476566 28.476565z" fill="#398DEE" p-id="6515"></path></svg>