<?xml version="1.0" standalone="no"?><!DOCTYPE svg PUBLIC "-//W3C//DTD SVG 1.1//EN" "http://www.w3.org/Graphics/SVG/1.1/DTD/svg11.dtd"><svg t="1654068714825" class="icon" viewBox="0 0 1027 1024" version="1.1" xmlns="http://www.w3.org/2000/svg" p-id="6652" xmlns:xlink="http://www.w3.org/1999/xlink" width="16.046875" height="16"><defs><style type="text/css">@font-face { font-family: feedback-iconfont; src: url("//at.alicdn.com/t/font_1031158_u69w8yhxdu.woff2?t=1630033759944") format("woff2"), url("//at.alicdn.com/t/font_1031158_u69w8yhxdu.woff?t=1630033759944") format("woff"), url("//at.alicdn.com/t/font_1031158_u69w8yhxdu.ttf?t=1630033759944") format("truetype"); }
</style></defs><path d="M292.776849 371.598696H415.96199a18.877723 18.877723 0 0 0 17.917839-19.837607V231.455601v-1.919769a18.877723 18.877723 0 0 0-19.837608-17.917838H290.857081a18.877723 18.877723 0 0 0-17.917839 19.837607V352.08105a18.2378 18.2378 0 0 0 0 1.919769 18.877723 18.877723 0 0 0 19.837607 17.597877z" fill="#398DEE" p-id="6653"></path><path d="M937.179118 0.123505H86.401743A81.91012 81.91012 0 0 0 0.012164 83.31347v854.296951A86.389579 86.389579 0 0 0 86.401743 1024h854.29695a88.629309 88.629309 0 0 0 86.38958-86.389579V83.31347A86.069618 86.069618 0 0 0 937.179118 0.123505z m-703.91509 231.012134v-1.919768a59.19286 59.19286 0 0 1 59.512821-57.913014H415.96199a59.19286 59.19286 0 0 1 58.232976 60.152744v122.545218a59.19286 59.19286 0 0 1-60.152745 58.232975H292.776849A60.472705 60.472705 0 0 1 232.624105 352.08105zM511.950411 792.667904a280.28619 280.28619 0 0 1-278.366422-250.529779h-31.99614l50.23394-86.069618 49.594018 86.069618h-26.556797A240.610976 240.610976 0 0 0 511.950411 752.672729z m282.845882 11.838572a48.634134 48.634134 0 0 1-48.314172 48.314173h-142.702787a48.634134 48.634134 0 0 1-48.314172-47.67425v-144.622555a48.634134 48.634134 0 0 1 48.314172-48.314172h144.302594a48.634134 48.634134 0 0 1 48.314172 48.314172z m-22.71726-234.211748l-50.23394-86.069618h28.476565A242.210783 242.210783 0 0 0 511.950411 271.450776V231.455601a280.606152 280.606152 0 0 1 278.366422 252.769509h31.996141z" fill="#398DEE" p-id="6654"></path></svg>