<?xml version="1.0" standalone="no"?><!DOCTYPE svg PUBLIC "-//W3C//DTD SVG 1.1//EN" "http://www.w3.org/Graphics/SVG/1.1/DTD/svg11.dtd"><svg t="1654068724158" class="icon" viewBox="0 0 1027 1024" version="1.1" xmlns="http://www.w3.org/2000/svg" p-id="6791" xmlns:xlink="http://www.w3.org/1999/xlink" width="16.046875" height="16"><defs><style type="text/css">@font-face { font-family: feedback-iconfont; src: url("//at.alicdn.com/t/font_1031158_u69w8yhxdu.woff2?t=1630033759944") format("woff2"), url("//at.alicdn.com/t/font_1031158_u69w8yhxdu.woff?t=1630033759944") format("woff"), url("//at.alicdn.com/t/font_1031158_u69w8yhxdu.ttf?t=1630033759944") format("truetype"); }
</style></defs><path d="M645.054356 643.245928a4.47946 4.47946 0 0 0-5.439344 0l-40.315137 42.554867c-31.99614 33.595947-85.109734 16.637993-102.38765 7.359113a816.861466 816.861466 0 0 1-92.148884-66.551973 447.945967 447.945967 0 0 1-87.349464-108.146954 78.070583 78.070583 0 0 1 20.797492-100.14792l30.396333-28.796526a15.358147 15.358147 0 0 0 2.23973-19.837608l-57.593053-84.149849a22.71726 22.71726 0 0 0-31.996141-6.399228 600.567557 600.567557 0 0 0-50.23394 36.155639c-18.877723 15.678109-24.637028 56.313207-15.358147 111.346569s44.154674 117.425836 109.106839 195.816379a597.367942 597.367942 0 0 0 211.814449 158.060934c117.745797 59.19286 168.61966 15.678109 199.015994-10.238765l3.519576-3.199614a77.110699 77.110699 0 0 0 19.197684-43.19479 11.838572 11.838572 0 0 0-5.439344-12.158533z" fill="#398DEE" p-id="6792"></path><path d="M937.179118 0.123505H86.401743A81.91012 81.91012 0 0 0 0.012164 83.31347v854.296951A86.389579 86.389579 0 0 0 86.401743 1024h854.29695a88.629309 88.629309 0 0 0 86.38958-86.389579V83.31347A86.069618 86.069618 0 0 0 937.179118 0.123505z m-122.225257 735.911231a126.064793 126.064793 0 0 1-38.075407 75.830853l-3.519575 2.879652a191.976843 191.976843 0 0 1-130.224292 53.113594A290.844917 290.844917 0 0 1 511.950411 832.023157a654.321073 654.321073 0 0 1-231.972018-173.419081c-72.311277-88.629309-110.706646-159.980702-121.265372-222.053215-13.118418-77.750621 0-134.38379 35.195754-164.140201a635.44335 635.44335 0 0 1 57.593053-40.315137 79.67039 79.67039 0 0 1 108.466916 22.077337L415.96199 338.962633a71.351393 71.351393 0 0 1-9.918804 91.828923l-31.99614 31.99614c-2.559691 2.23973-16.957954 15.358147-8.958919 28.156604a392.592644 392.592644 0 0 0 75.510891 94.068653 799.903512 799.903512 0 0 0 82.230081 59.832782c7.679074 4.159498 29.116488 9.598842 35.195755 3.199615l39.675214-41.914944a60.792667 60.792667 0 0 1 76.470775-9.918804l109.106839 69.111663a67.511856 67.511856 0 0 1 31.676179 70.711471z m-291.804801-402.191486a28.156604 28.156604 0 0 1 28.156604-28.156603 172.459197 172.459197 0 0 1 172.459197 172.459197 28.156604 28.156604 0 0 1-56.313207 0 116.14599 116.14599 0 0 0-116.14599-116.14599 28.156604 28.156604 0 0 1-28.156604-28.156604z m319.961405 172.459197a28.156604 28.156604 0 0 1-28.156604-28.156603 264.608082 264.608082 0 0 0-264.28812-263.968159 28.156604 28.156604 0 1 1 0-56.313207 319.961405 319.961405 0 0 1 319.961405 319.961404 28.156604 28.156604 0 0 1-26.876758 28.156604z" fill="#398DEE" p-id="6793"></path></svg>