<?xml version="1.0" standalone="no"?><!DOCTYPE svg PUBLIC "-//W3C//DTD SVG 1.1//EN" "http://www.w3.org/Graphics/SVG/1.1/DTD/svg11.dtd"><svg t="1654068667632" class="icon" viewBox="0 0 1025 1024" version="1.1" xmlns="http://www.w3.org/2000/svg" p-id="6342" width="16.015625" height="16" xmlns:xlink="http://www.w3.org/1999/xlink"><defs><style type="text/css">@font-face { font-family: feedback-iconfont; src: url("//at.alicdn.com/t/font_1031158_u69w8yhxdu.woff2?t=1630033759944") format("woff2"), url("//at.alicdn.com/t/font_1031158_u69w8yhxdu.woff?t=1630033759944") format("woff"), url("//at.alicdn.com/t/font_1031158_u69w8yhxdu.ttf?t=1630033759944") format("truetype"); }
</style></defs><path d="M940 0H86.4C37.6 0 0.8 36.8 0.8 84.8v853.6c0 48.8 37.6 85.6 85.6 85.6h852.8c48.8 0 85.6-40 86.4-84.8V85.6C1025.6 36.8 988 0 940 0zM284.8 785.6h-91.2v-91.2h91.2v91.2z m0-228h-91.2v-91.2h91.2v91.2z m0-228h-91.2v-91.2h91.2v91.2z m547.2 456H376v-91.2h456v91.2z m0-228H376v-91.2h456v91.2z m0-228H376v-91.2h456v91.2z" fill="#398DEE" p-id="6343"></path></svg>